<?xml version="1.0" standalone="no"?>
<!DOCTYPE svg PUBLIC "-//W3C//DTD SVG 20010904//EN"
 "http://www.w3.org/TR/2001/REC-SVG-20010904/DTD/svg10.dtd">
<svg version="1.0" xmlns="http://www.w3.org/2000/svg"
 width="140.000000pt" height="140.000000pt" viewBox="0 0 140.000000 140.000000"
 preserveAspectRatio="xMidYMid meet">
<metadata>
Created by potrace 1.11, written by Peter Selinger 2001-2013
</metadata>
<g transform="translate(0.000000,140.000000) scale(0.100000,-0.100000)"
fill="#000000" stroke="none">
<path d="M241 1361 c-10 -6 -14 -32 -14 -90 l1 -81 -79 0 c-52 0 -82 -4 -91
-13 -10 -11 -13 -57 -13 -198 0 -101 4 -190 8 -196 6 -10 54 -13 183 -13 l174
0 0 -354 c0 -307 2 -355 16 -366 22 -19 366 -19 389 0 11 9 15 32 15 91 l0 79
79 0 c58 0 82 4 91 15 9 11 12 82 13 275 l0 260 76 0 c42 0 83 4 91 9 19 13
22 184 4 209 -10 14 -29 17 -101 16 -126 0 -123 2 -123 -97 l0 -84 -81 0 c-46
-1 -86 -6 -92 -12 -8 -8 -12 -91 -12 -271 0 -143 -2 -260 -5 -261 -14 -3 -106
-4 -115 -2 -6 2 -10 128 -10 354 1 294 -1 352 -14 362 -10 8 -66 12 -180 12
l-166 0 -3 65 -3 65 537 0 c623 -1 564 -13 564 118 0 130 65 117 -573 117
-304 0 -558 -4 -566 -9z m1081 -55 c2 -6 4 -33 3 -61 l0 -50 -522 -3 -523 -2
0 63 0 64 520 0 c364 0 520 -4 522 -11z m-1095 -249 c1 -43 7 -85 14 -93 9
-11 46 -14 180 -14 l169 0 0 -27 c1 -16 1 -173 0 -350 0 -278 2 -324 16 -337
11 -12 36 -16 93 -16 l77 0 -1 -63 -1 -62 -156 -3 -156 -2 1 355 c0 322 -1
357 -17 368 -11 8 -64 12 -180 11 l-165 -2 -3 82 c-2 44 -2 115 0 156 l3 75
62 0 62 0 2 -78z m913 -173 l0 -64 -62 2 -63 3 -3 62 -3 62 43 3 c85 6 88 4
88 -68z m-180 -362 l0 -247 -62 0 -63 1 -3 247 -2 247 65 0 65 0 0 -248z"/>
</g>
</svg>
